<svg width="170" height="170" viewBox="0 0 170 170" fill="none" xmlns="http://www.w3.org/2000/svg">
<g opacity="0.5">
<path fill-rule="evenodd" clip-rule="evenodd" d="M83.6375 56.2768C89.2711 52.4855 96.062 50.2646 103.365 50.2646C122.926 50.2646 138.781 66.1412 138.781 85.7225C138.781 105.314 122.926 121.191 103.365 121.191C95.5037 121.191 88.251 118.624 82.3788 114.289C82.2001 114.158 81.7135 113.838 81.1605 113.474L81.1601 113.474C80.4877 113.032 79.7172 112.525 79.2828 112.216C75.3443 109.415 71.9133 108.897 65.5996 110.787C62.9807 111.662 60.174 112.144 57.2556 112.144C42.6893 112.144 30.8789 100.323 30.8789 85.7276C30.8789 71.1369 42.6893 59.3108 57.2607 59.3006C60.5343 59.3006 63.6709 59.9054 66.5639 60.9981C66.9445 61.1454 68.1626 61.5673 68.4164 61.6282C72.6493 62.7057 75.7402 62.0907 80.3435 58.6247C80.4653 58.5332 83.2365 56.5461 83.6375 56.2768ZM86.0982 93.005C87.8442 93.0355 89.4327 92.3443 90.5899 91.2059L93.6707 94.3569C91.7014 96.283 89.0013 97.4519 86.0322 97.4061C84.0021 97.3756 82.109 96.7709 80.5001 95.7595L82.8449 92.0293C83.7889 92.6289 84.9004 92.9898 86.0982 93.005ZM86.3569 75.99C80.4492 75.9037 75.587 80.6199 75.5007 86.5354C75.4652 88.7512 76.1097 90.8196 77.2314 92.5476L96.6143 84.2586C95.518 79.5831 91.3714 76.0714 86.3569 75.99ZM79.9366 87.3689C79.9112 87.1148 79.8909 86.8658 79.896 86.6015C79.9467 83.1202 82.8143 80.3403 86.2909 80.3912C88.1841 80.4216 89.864 81.2856 91.0009 82.6324L79.9366 87.3689ZM102.685 91.8507V71.1766H98.5895V91.9116C98.5895 93.0297 98.8839 93.8683 99.2798 94.473C99.6858 95.0676 100.224 95.6013 101.026 95.9418L104.573 97.4156L106.263 93.3397L102.685 91.8507ZM71.5008 71.1766V91.8507L75.084 93.3397L73.3939 97.4156L69.8513 95.9418C69.0493 95.6013 68.5114 95.0676 68.1053 94.473C67.7094 93.8683 67.4202 93.0297 67.4202 91.9116V71.1766H71.5008ZM123.265 89.4371C124.773 86.2912 123.453 82.5254 120.317 81.016C117.936 79.8674 115.195 80.3604 113.348 82.0426L110.384 78.7849C113.51 75.9339 118.175 75.1055 122.22 77.052C127.549 79.6133 129.787 86.0117 127.229 91.3428L123.265 89.4371ZM114.861 92.3847C111.729 90.8753 110.404 87.1044 111.912 83.9688L107.948 82.063C105.39 87.3941 107.628 93.7975 112.957 96.3589C117.007 98.3054 121.667 97.4719 124.793 94.6208L121.829 91.3632C119.987 93.0403 117.246 93.5333 114.861 92.3847ZM63.3759 86.7233V92.6846L65.132 93.3859L63.4419 97.4618L61.4422 96.669C60.6403 96.3285 60.1023 95.7949 59.6962 95.2003C59.3054 94.5955 59.0111 93.762 59.0111 92.6389V86.703H59.006C59.0009 84.1518 57.4834 81.9563 55.306 80.9602C54.5143 80.5943 53.6312 80.3859 52.6973 80.3859C52.2101 80.3859 51.733 80.4469 51.2762 80.5536C49.4795 80.9704 47.9772 82.1545 47.1296 83.7401C46.6627 84.6244 46.3886 85.6306 46.3886 86.703C46.3937 90.1893 49.2156 93.0149 52.6973 93.02C53.8037 93.02 54.8289 92.7354 55.7324 92.2374L57.4631 96.2726C56.0267 96.9892 54.4077 97.3957 52.7024 97.3957H52.6973C46.7997 97.3906 42.0187 92.6084 42.0187 86.703C42.0238 83.7503 43.2165 81.0771 45.1502 79.1408C46.3581 77.9313 47.8554 77.0114 49.5252 76.4879C50.5301 76.1779 51.5959 76.0051 52.7024 76.0051C53.8291 76.0051 54.9152 76.183 55.9354 76.5032C60.2494 77.8753 63.3759 81.9156 63.3759 86.6928V86.7233Z" fill="#101416"/>
</g>
</svg>
