<svg width="171" height="171" viewBox="0 0 171 171" fill="none" xmlns="http://www.w3.org/2000/svg">
<g opacity="0.5" clip-path="url(#clip0_1144_9442)">
<g clip-path="url(#clip1_1144_9442)">
<path d="M58.9454 88.3551H45.434L43.002 93.734H38.3613L49.846 67.9375H54.5957L66.0804 93.734H61.367L58.9454 88.3551ZM47.0502 84.5213H57.324L53.8994 76.2658C52.9432 73.9822 52.3872 72.6921 52.2416 72.1771H52.1689C51.9506 72.6921 51.3582 74.1694 50.4384 76.3074L47.0502 84.5213Z" fill="#101416"/>
<path d="M78.8177 93.1097C77.4198 93.734 76.2402 93.9941 74.7332 93.9941C70.9032 93.9941 68.7674 91.7468 68.7674 87.5072V78.9604H65.3428V75.5323H68.7674V67.9375H72.852V75.5271H78.0798V78.9552H72.852V87.3928C72.852 89.3851 73.6626 90.4151 75.3931 90.4151C76.1311 90.4151 76.9417 90.1914 77.6745 89.8273L78.8177 93.1097Z" fill="#101416"/>
<path d="M83.1673 67.9375H87.2935V73.5036C87.2935 75.3815 87.1843 77.1866 86.9609 78.6275H87.0336C88.1769 76.7132 90.4582 75.163 93.3268 75.163C98.2221 75.163 100.909 78.1125 100.909 83.4913V93.7392H96.7878V83.8607C96.7878 80.7655 95.3535 78.8096 92.3706 78.8096C89.4241 78.8096 87.2883 81.0568 87.2883 84.152V93.734H83.1621V67.9375H83.1673Z" fill="#101416"/>
<path d="M124.304 86.1076H110.387C110.647 88.8698 112.892 90.6021 115.911 90.6021C117.642 90.6021 119.85 90.0507 121.544 88.5733L123.493 91.2992C121.617 93.2915 118.489 94.1394 115.761 94.1394C110.091 94.1394 106.225 90.4564 106.225 84.6303C106.225 78.9549 110.236 75.1211 115.833 75.1211C120.729 75.1211 124.377 78.2163 124.377 84.443C124.377 85.0412 124.34 85.5926 124.304 86.1076ZM110.424 82.976H120.474C120.292 80.0994 118.338 78.6636 115.688 78.6636C113.001 78.6636 110.943 80.0629 110.424 82.976Z" fill="#101416"/>
<path d="M129.729 75.5321H133.523C133.523 76.4893 133.487 77.4464 133.414 78.8509H133.523C134.625 76.38 136.911 75.168 139.894 75.168C144.789 75.168 147.476 78.1175 147.476 83.4963V93.7441H143.355V83.8604C143.355 80.7653 141.921 78.8093 138.938 78.8093C135.991 78.8093 133.856 81.0566 133.856 84.1517V93.7337H129.729V75.5321Z" fill="#101416"/>
<path d="M169.692 82.3106V93.734H166.085C166.085 92.7769 166.085 91.8197 166.194 90.7481H166.085C164.796 92.9589 162.11 94.0306 159.605 94.0306C156.071 94.0306 152.646 92.2255 152.646 88.1315C152.646 84.0012 156.217 82.0869 159.937 82.0869C161.85 82.0869 164.022 82.4562 165.571 83.377V82.3834C165.571 79.5431 163.18 78.6224 160.416 78.6224C158.649 78.6224 156.549 79.1738 155.006 79.7668L154.05 76.5624C156.185 75.6417 158.358 75.1631 160.712 75.1631C165.747 75.1631 169.692 76.8589 169.692 82.3106ZM165.675 86.623C164.386 85.7751 162.286 85.2237 160.743 85.2237C158.643 85.2237 156.767 86.0716 156.767 87.9495C156.767 89.8638 158.758 90.6389 160.525 90.6389C162.951 90.6389 165.347 89.3124 165.675 86.623Z" fill="#101416"/>
<path d="M129.729 105.205L129.932 104.882C130.358 105.179 130.868 105.407 131.496 105.407C132.271 105.407 132.816 105.059 132.816 104.445C132.816 103.909 132.536 103.639 131.47 103.42C130.317 103.186 129.87 102.833 129.87 102.12C129.87 101.334 130.582 100.835 131.522 100.835C132.084 100.835 132.562 100.981 132.998 101.272L132.78 101.579C132.416 101.34 131.985 101.215 131.522 101.215C130.81 101.215 130.27 101.548 130.27 102.109C130.27 102.609 130.603 102.843 131.585 103.046C132.822 103.306 133.227 103.691 133.227 104.435C133.227 105.288 132.515 105.787 131.491 105.787C130.774 105.792 130.182 105.538 129.729 105.205Z" fill="#101416"/>
<path d="M141.422 104.55H138.59L138.07 105.715H137.623L139.769 100.924H140.232L142.378 105.715H141.936L141.422 104.55ZM139.431 102.625L138.756 104.17H141.25L140.564 102.609C140.289 101.985 140.149 101.668 140.008 101.324H139.993C139.863 101.668 139.712 102.011 139.431 102.625Z" fill="#101416"/>
<path d="M147.305 103.841V100.918H147.715V103.841C147.715 104.783 148.297 105.407 149.175 105.407C150.059 105.407 150.636 104.783 150.636 103.841V100.918H151.041V103.841C151.041 105.007 150.282 105.792 149.175 105.792C148.063 105.792 147.305 105.007 147.305 103.841Z" fill="#101416"/>
<path d="M160.832 103.306C160.832 104.731 159.839 105.709 158.405 105.709H156.763V100.918H158.41C159.844 100.918 160.832 101.891 160.832 103.306ZM160.421 103.321C160.421 102.13 159.595 101.308 158.405 101.308H157.168V105.319H158.41C159.605 105.319 160.421 104.507 160.421 103.321Z" fill="#101416"/>
<path d="M169.691 105.319V105.709H166.49V100.918H169.613V101.303H166.89V103.098H169.473V103.483H166.89V105.324H169.691V105.319Z" fill="#101416"/>
<path d="M150.11 99.6449L149.846 99.3369L148.875 100.17L149.139 100.478L150.11 99.6449Z" fill="#101416"/>
<path d="M16.8633 63.8496L32.8171 87.945L28.3219 94.9261L16.8633 77.6192V63.8496Z" fill="#101416"/>
<path d="M16.8633 63.8496L0.904297 87.945L5.39942 94.9261L16.8633 77.6192V63.8496Z" fill="#101416"/>
<path opacity="0.46" d="M8.28906 92.5854C8.28906 92.5854 12.5088 86.6656 17.3677 85.5159C21.0365 84.9177 24.4767 92.7674 24.4767 92.7674C24.4767 92.7674 20.2986 91.3213 18.0536 91.0248C14.8369 90.593 11.9787 90.9988 8.28906 92.5854Z" fill="#101416"/>
</g>
</g>
<defs>
<clipPath id="clip0_1144_9442">
<rect width="170" height="170" fill="white" transform="translate(0.56543 0.258789)"/>
</clipPath>
<clipPath id="clip1_1144_9442">
<rect width="168.788" height="41.9433" fill="white" transform="translate(0.90332 63.8506)"/>
</clipPath>
</defs>
</svg>
