<svg width="171" height="171" viewBox="0 0 171 171" fill="none" xmlns="http://www.w3.org/2000/svg">
<g opacity="0.5">
<g clip-path="url(#clip0_1144_9464)">
<path d="M50.8125 119.458C49.3121 119.458 48.2162 120.214 48.2162 121.662C48.2162 123.017 49.1687 123.962 50.5984 123.962C51.5518 123.962 52.5053 123.433 53.1004 122.676V120.745C53.1004 120.101 52.2658 119.458 50.8125 119.458ZM83.2436 119.191C83.3143 121.732 84.9354 123.57 87.7231 123.57C89.4159 123.57 90.7032 122.653 91.1549 122.077C91.369 122.238 91.5849 122.48 91.5849 123.041C91.5849 124.305 90.0591 126.053 86.5085 126.053C82.9351 126.053 80.0259 123.205 80.0259 119.482C80.0259 115.382 82.7192 112.452 86.6999 112.452C90.3185 112.452 91.9886 115.116 91.9886 117.385C91.9886 118.054 91.8453 118.674 91.5586 119.191H83.2436ZM88.2965 117.548C88.868 117.548 88.8925 117.214 88.8925 116.766C88.868 115.429 87.8175 114.191 86.2227 114.191C84.1498 114.191 83.3388 115.928 83.2681 117.548H88.2965ZM121.917 118.95C121.917 122.055 122.348 123.638 124.351 123.638C126.539 123.638 127.138 121.684 127.138 119.91V116.523C127.138 115.359 126.586 114.908 125.325 115.044C124.802 113.736 126.539 112.904 127.519 112.713C127.826 112.665 128.114 112.618 128.379 112.618C129.758 112.618 130.288 113.479 130.288 114.765C130.288 115.237 130.242 116.099 130.242 119.662C130.242 121.169 130.217 121.965 130.217 122.214C130.217 123.387 130.761 123.985 132.021 123.848C132.537 125.158 130.811 125.78 129.826 125.962C129.523 126.007 129.249 126.053 129.022 126.053C127.712 126.053 127.446 125.204 127.182 123.986C126.997 124.214 126.826 124.401 126.471 124.744C125.613 125.547 124.493 126.031 123.229 126.031C121.846 126.031 120.679 125.5 119.939 124.63C118.796 123.274 118.796 121.527 118.796 118.975V116.524C118.796 115.36 118.247 114.909 116.986 115.045C116.461 113.737 118.202 112.905 119.178 112.713C119.487 112.666 119.772 112.619 120.035 112.619C121.416 112.619 121.941 113.48 121.941 114.766L121.917 118.95H121.917ZM115.89 119.217C115.89 115.189 113.102 112.451 109.241 112.451C105.668 112.451 102.497 115.189 102.497 119.217C102.497 123.296 105.475 126.03 109.122 126.03C112.981 126.03 115.89 123.25 115.89 119.217ZM56.0795 122.766C56.0795 123.794 56.7454 124.121 57.9138 124.282C57.8421 125.476 57.0075 125.938 56.0314 126.03C54.9347 126.121 53.8624 125.614 53.4342 124.469C52.9325 124.924 51.4557 126.075 49.5252 126.075C46.8809 126.075 44.9023 124.304 44.9023 121.892C44.9023 119.342 47.1185 117.831 50.2401 117.831C51.3142 117.831 52.4318 118.054 53.0995 118.4V116.692C53.0995 115.163 52.4318 114.191 50.6937 114.191C50.3353 114.191 49.5497 114.286 48.9292 114.522C49.0009 114.764 49.0499 115.022 49.0499 115.26C49.0499 116.194 48.4539 116.951 47.4533 116.951C46.5706 116.951 45.9029 116.24 45.9029 115.332C45.9029 113.665 48.0012 112.45 50.9087 112.45C53.2201 112.45 54.6271 112.998 55.3656 113.949C56.0314 114.786 56.0795 116.073 56.0795 117.93V122.766ZM112.482 119.413C112.482 122.508 111.147 124.19 109.266 124.19C107.597 124.19 105.977 122.509 105.977 118.838C105.977 115.978 107.168 114.192 109.122 114.192C111.052 114.192 112.482 116.171 112.482 119.413ZM65.5149 114.715C65.5866 115.527 66.2778 116.097 67.087 116.097C68.1121 116.097 68.7317 115.188 68.7317 114.308C68.7317 113.069 67.7311 112.427 66.7296 112.427C65.5866 112.427 64.371 113.286 63.6806 114.57L63.6325 114.593C63.4184 113.452 62.8696 112.592 61.7257 112.592C61.4635 112.592 61.1778 112.641 60.8684 112.735C59.915 113.021 58.5089 113.757 59.0341 115.067C60.3686 114.81 60.8448 115.259 60.8448 116.422V121.962C60.8448 123.062 60.7024 123.522 60.3205 123.845C59.9622 124.119 59.5821 124.232 59.3435 124.28C58.7955 125.473 59.8678 125.845 62.5131 125.845C65.1584 125.845 66.0637 125.474 65.5158 124.28C65.2772 124.232 64.6105 124.118 64.253 123.845C63.8711 123.522 63.7051 123.062 63.7051 121.962V118.62C63.7044 115.641 64.8001 114.858 65.5149 114.715V114.715ZM98.3043 112.783H101.712C102.117 113.758 101.569 114.544 100.806 114.617C100.568 114.642 100.306 114.642 100.068 114.642C99.4473 114.642 98.8286 114.593 98.3995 114.593V121.963C98.3995 123.063 98.59 123.523 98.9711 123.846C99.3294 124.12 100.164 124.233 100.403 124.281C100.95 125.474 99.6623 125.846 97.0179 125.846C94.3736 125.846 93.2777 125.475 93.8247 124.281C94.0624 124.232 94.4452 124.119 94.8017 123.846C95.1827 123.523 95.3252 123.063 95.3252 121.963V114.543L93.324 114.473C92.9185 113.5 93.4664 112.807 94.2765 112.807H95.2789V111.854C95.2789 109.924 95.6354 108.851 96.1126 108.137C96.8501 106.993 98.1138 106.208 100.09 106.208C102.593 106.208 104.618 107.375 104.618 109.137C104.618 109.9 104.094 110.828 102.998 110.828C102.189 110.828 101.426 110.137 101.426 109.281C101.426 108.922 101.569 108.541 101.759 108.305C101.474 107.971 100.878 107.803 100.305 107.803C98.6608 107.803 98.3043 109.018 98.3043 110.543V112.783V112.783ZM76.3573 114.715C76.429 115.527 77.1202 116.097 77.9303 116.097C78.9554 116.097 79.5741 115.188 79.5741 114.308C79.5741 113.069 78.5735 112.427 77.5729 112.427C76.429 112.427 75.2134 113.286 74.5239 114.57L74.4749 114.593C74.2618 113.452 73.7129 112.592 72.569 112.592C72.3077 112.592 72.0211 112.641 71.7117 112.735C70.7574 113.021 69.3513 113.757 69.8765 115.067C71.211 114.81 71.6863 115.259 71.6863 116.422V121.962C71.6863 123.062 71.5448 123.522 71.1629 123.845C70.8055 124.119 70.4254 124.232 70.1877 124.28C69.6389 125.473 70.712 125.845 73.3555 125.845C75.9999 125.845 76.907 125.474 76.3582 124.28C76.1205 124.232 75.4538 124.118 75.0954 123.845C74.7144 123.522 74.5475 123.062 74.5475 121.962V118.62C74.5468 115.641 75.6425 114.858 76.3573 114.715V114.715ZM139.779 114.715C139.859 115.527 140.555 116.097 141.369 116.097C142.38 116.097 142.999 115.188 142.999 114.308C142.999 113.069 142.013 112.427 140.998 112.427C139.859 112.427 138.657 113.286 137.968 114.57L137.898 114.593C137.69 113.452 137.136 112.592 136.013 112.592C135.734 112.592 135.463 112.641 135.136 112.735C134.196 113.021 132.795 113.757 133.305 115.067C134.644 114.81 135.113 115.259 135.113 116.422V121.962C135.113 123.062 134.976 123.522 134.583 123.845C134.241 124.119 133.848 124.232 133.62 124.28C133.067 125.473 134.149 125.845 136.792 125.845C139.437 125.845 140.331 125.474 139.778 124.28C139.551 124.232 138.884 124.118 138.513 123.845C138.151 123.522 137.99 123.062 137.99 121.962V118.62C137.991 115.641 139.068 114.858 139.779 114.715" fill="#101416"/>
<path d="M27.2568 116.583C27.2568 122.594 31.4017 126.154 35.9057 126.154C39.9571 126.154 42.792 123.307 42.792 120.937C42.792 119.674 42.0064 118.757 40.9813 118.757C39.9326 118.757 39.0518 119.468 39.0518 120.689C39.0518 121.469 39.4799 121.905 39.7902 122.249C39.2414 123.308 38.0739 124.179 36.2622 124.179C33.2604 124.179 31.0923 121.054 31.0923 116.559C31.0923 112.058 33.1643 108.913 36.1679 108.913C37.9795 108.913 39.1461 109.795 39.6949 110.844C39.3847 111.2 38.9565 111.629 38.9565 112.415C38.9565 113.631 39.8383 114.344 40.887 114.344C41.9121 114.344 42.6968 113.418 42.6968 112.153C42.6968 109.794 39.8619 106.937 35.8105 106.937C31.3055 106.936 27.2568 110.843 27.2568 116.583Z" fill="#101416"/>
<path d="M66.2873 35.4123L41.0038 59.8623C39.741 60.9342 38.9346 62.1928 38.9346 63.9937C38.9346 65.7864 39.7419 67.0496 41.0038 68.1296L66.2873 92.5715C66.4497 92.7375 66.6067 92.8037 66.74 92.8037C66.9795 92.8037 67.1446 92.586 67.1374 92.3303C67.1301 92.1798 67.0648 92.0066 66.9151 91.857C60.9804 84.4865 56.6623 76.0333 56.6623 64.0826C56.6623 52.1246 60.9804 43.5054 66.9151 36.1295C67.0648 35.9817 67.1301 35.8112 67.1374 35.6571C67.1455 35.3959 66.9795 35.1846 66.74 35.1846C66.6067 35.1821 66.4497 35.2472 66.2873 35.4123Z" fill="#101416"/>
<path d="M85.7241 33.3418C75.8242 33.3418 71.9561 47.3655 71.9561 64.0805C71.9561 80.801 75.8242 94.6379 85.7241 94.6379C91.6651 94.6379 96.7289 91.1603 96.7452 88.3021C96.7478 87.6764 96.5066 87.077 95.9814 86.5538C93.1655 83.8343 92.0642 81.1166 92.0561 78.7181C92.0379 74.1397 96.0113 70.7292 99.6744 70.7292C104.71 70.7292 107.68 74.6856 107.68 79.809C107.68 84.664 105.611 88.7074 103.359 91.9456C103.27 92.078 103.23 92.2258 103.23 92.3555C103.232 92.6094 103.382 92.8179 103.606 92.8179C103.742 92.8179 103.902 92.7454 104.076 92.5704L129.366 68.1285C130.629 67.0494 131.435 65.7853 131.435 63.9926C131.435 62.1926 130.628 60.933 129.366 59.8612L104.076 35.4111C103.903 35.2379 103.743 35.1645 103.606 35.1645C103.38 35.1645 103.232 35.3748 103.23 35.6297C103.23 35.7602 103.27 35.9062 103.359 36.0404C105.61 39.2741 107.68 43.322 107.68 48.1734C107.68 53.2932 104.71 57.2532 99.6744 57.2532C96.0113 57.2532 92.0379 53.8455 92.0561 49.2661C92.0642 46.8676 93.1655 44.1472 95.9814 41.4305C96.5066 40.9045 96.7479 40.3106 96.7452 39.684C96.7289 36.8212 91.6651 33.3418 85.7241 33.3418Z" fill="#101416"/>
</g>
</g>
<defs>
<clipPath id="clip0_1144_9464">
<rect width="115.743" height="92.8128" fill="white" transform="translate(27.2568 33.3418)"/>
</clipPath>
</defs>
</svg>
