<svg width="171" height="170" viewBox="0 0 171 170" fill="none" xmlns="http://www.w3.org/2000/svg">
<g opacity="0.5" clip-path="url(#clip0_1144_9470)">
<path fill-rule="evenodd" clip-rule="evenodd" d="M110.243 114.521H30.6416L37.0714 95.7149C37.2786 95.9724 37.5583 96.1769 37.8938 96.2936C38.0928 96.3628 38.2958 96.3956 38.4953 96.3956V96.4008H43.5581C44.4018 96.4008 45.1124 95.8316 45.3256 95.0569L47.6325 87.7913L50.0874 95.1432C50.3407 95.9085 51.0541 96.3931 51.8199 96.3931V96.4008H56.8266C57.7661 96.4008 58.5404 95.695 58.6468 94.786C60.6655 96.1216 63.3145 96.6411 65.9731 96.6757V96.6765C66.2581 96.6905 66.4754 96.6978 66.6211 96.6978C68.9062 96.6978 71.1255 96.0851 72.8359 94.8371C74.0028 93.9855 74.9225 92.858 75.4643 91.4493C75.7355 91.8589 76.0325 92.2491 76.3542 92.6172C78.222 94.7547 80.8963 96.1377 84.147 96.2794C84.1932 96.2814 84.2392 96.2814 84.2846 96.28C86.9836 96.301 89.2265 95.6897 90.9855 94.3809C91.618 93.9104 92.1793 93.3568 92.6682 92.7176V94.5151C92.6682 95.5252 93.4889 96.3444 94.5011 96.3444H99.35C100.362 96.3444 101.183 95.5252 101.183 94.5151V88.2716H104.115V94.5151C104.115 95.5252 104.936 96.3444 105.948 96.3444H110.74C111.752 96.3444 112.573 95.5252 112.573 94.5151V92.2085C112.909 92.7142 113.285 93.1896 113.698 93.6304C115.618 95.678 118.319 96.952 121.55 97.0171L121.608 97.0173C122.95 97.0264 124.204 96.8609 125.356 96.5379L122.28 105.533C120.59 110.477 115.174 114.521 110.243 114.521ZM129.686 83.8738L127.021 91.6662C125.668 92.7721 123.834 93.3887 121.625 93.3733L121.622 93.3732C119.431 93.3291 117.624 92.4904 116.361 91.1439C115.031 89.7251 114.274 87.7153 114.274 85.4433H114.274C114.274 82.6918 114.946 80.3517 116.341 78.7776C117.578 77.3809 119.452 76.5365 122.012 76.493V76.4928L122.184 76.493C124.541 76.5165 126.406 77.4769 127.681 78.9833C128.781 80.282 129.468 81.9903 129.686 83.8738ZM131.613 78.2379C131.277 77.6653 130.897 77.1257 130.473 76.6254C128.539 74.3405 125.735 72.8842 122.212 72.849C122.132 72.8483 122.05 72.8483 121.969 72.849L121.955 72.8493V72.849C118.28 72.9112 115.512 74.2105 113.606 76.3624C113.224 76.7928 112.88 77.2552 112.573 77.7462V75.066C112.573 74.0559 111.752 73.2368 110.74 73.2368H106.06C105.048 73.2368 104.228 74.0559 104.228 75.066V80.7404H101.183V75.066C101.183 74.0559 100.362 73.2368 99.35 73.2368H94.5011C93.4889 73.2368 92.6682 74.0559 92.6682 75.066V75.575C92.3043 75.1049 91.8955 74.6804 91.4436 74.3009C89.6805 72.8206 87.3453 72.0996 84.509 72.0996C81.0995 72.0996 78.4404 73.4002 76.567 75.5022C75.9125 76.2364 75.3609 77.0668 74.9132 77.971C74.4209 76.7225 73.6346 75.7225 72.6432 74.937C70.7664 73.45 68.1957 72.8307 65.5728 72.789L65.5442 72.7888V72.7817C63.0743 72.7817 60.5445 73.4194 58.7027 74.8677C57.0256 76.1868 55.9333 78.1065 55.9333 80.7277C55.9333 83.3938 57.0433 85.0578 58.7022 86.2159L58.7604 86.2561H56.9693C56.5897 86.2561 56.237 86.3713 55.9444 86.5687L51.7213 74.58C51.4585 73.8275 50.7516 73.3562 49.9958 73.3562V73.3509H45.2697C45.0652 73.3509 44.8687 73.3843 44.6851 73.446L48.0547 63.5901C49.7446 58.647 55.1615 54.6025 60.0918 54.6025H139.693L131.613 78.2379ZM126.713 90.7126C127.909 89.1194 128.514 86.9768 128.61 85.1113C128.62 85.0351 128.625 84.9576 128.625 84.8787C128.625 82.9253 128.089 80.7737 126.893 79.1932C125.796 77.7435 124.204 76.7702 122.041 76.7702V76.7749C121.97 76.772 121.936 76.7699 121.915 76.7687C121.899 76.7678 121.892 76.7673 121.881 76.7673V76.7746C119.603 76.7744 117.937 77.9659 116.835 79.6411C115.863 81.1191 115.359 83.008 115.297 84.6917L115.284 85.0475C115.284 86.947 115.849 89.15 117.055 90.7711C118.156 92.2508 119.743 93.2646 121.87 93.2646V93.2575L121.899 93.2573C124.019 93.2201 125.602 92.1925 126.713 90.7126ZM126.792 86.708L128.61 85.1113C128.496 86.0116 127.725 86.708 126.792 86.708ZM124.96 84.9456C124.895 86.1775 124.522 87.554 123.792 88.5261H123.792C123.322 89.1521 122.684 89.5887 121.87 89.6126V89.606C121.058 89.606 120.435 89.1966 119.99 88.5988C119.282 87.6465 118.95 86.2705 118.95 85.0475C118.95 84.9354 118.949 84.8881 118.948 84.8611C118.948 84.8428 118.948 84.8338 118.948 84.8203C118.988 83.7448 119.3 82.5535 119.899 81.6418C120.369 80.9271 121.033 80.4186 121.881 80.4186V80.4258C121.958 80.4258 121.951 80.4234 121.947 80.4219C121.944 80.4207 121.942 80.4201 121.977 80.4214L122.041 80.4224V80.4287C122.901 80.4287 123.535 80.8165 123.972 81.3939C124.654 82.2949 124.959 83.625 124.959 84.8787L124.96 84.9456ZM97.517 92.6858H96.334V76.8953H97.517V82.5697C97.517 83.5799 98.3377 84.399 99.35 84.399H106.06C107.073 84.399 107.893 83.5799 107.893 82.5697V76.8953H108.907V92.6858H107.781V86.4424C107.781 85.4321 106.96 84.6131 105.948 84.6131H99.35C98.3377 84.6131 97.517 85.4321 97.517 86.4424V92.6858ZM92.6682 82.7571V86.0425L88.7631 85.5921C87.862 85.4896 87.0391 86.0586 86.7968 86.9003C86.6295 87.4463 86.3262 87.8848 85.9295 88.1804C85.535 88.4746 85.0276 88.6388 84.4497 88.6388L84.4158 88.6393C83.7356 88.5779 83.2258 88.1918 82.8612 87.6558C82.2026 86.6884 81.9308 85.284 81.9308 84.0751C81.9308 84.0519 81.9296 84.0289 81.929 84.0061C81.9936 82.6755 82.2663 81.3099 82.9301 80.4446C83.3278 79.9262 83.9399 79.5944 84.8528 79.6238L84.8698 79.6242C85.4476 79.6414 85.894 79.7841 86.1973 80.0396C86.5008 80.2953 86.7138 80.7127 86.8244 81.2779C86.995 82.1508 87.7623 82.7563 88.6213 82.7554V82.7571H92.6682ZM41.0695 92.7423L46.5657 77.0095H48.7033L54.2453 92.7423H53.1326L50.1333 83.7597L49.3944 80.5011C49.2539 79.8207 48.7282 79.2509 48.005 79.0887C47.0203 78.8678 46.0425 79.4852 45.8212 80.4678L45.0883 83.6993L42.2171 92.7423H41.0695ZM59.1549 89.9147H60.322H60.3221C60.6558 90.6209 61.1558 91.2043 61.7643 91.6636C62.7865 92.4355 64.118 92.8189 65.4325 92.8075C65.4701 92.8098 65.5079 92.8111 65.5461 92.8111C66.4195 92.8111 67.8847 92.7073 69.0567 92.1554C70.1424 91.6443 70.9728 90.8083 71.135 89.4678C71.1445 89.4039 71.1507 89.3388 71.1531 89.2728C71.2733 86.3801 67.0457 85.3115 65.0317 84.8028L64.621 84.6995L64.5801 84.6875C63.1537 84.2846 61.7208 83.8769 60.7929 83.2291C60.078 82.73 59.5994 81.9788 59.5994 80.7277C59.5994 79.3656 60.1381 78.3906 60.9653 77.7401C62.1131 76.8376 63.819 76.4402 65.5444 76.4402V76.4334C67.418 76.4671 69.188 76.8613 70.3668 77.7953C70.8273 78.1599 71.2019 78.627 71.4578 79.2119H70.6431C70.3542 78.4903 69.8657 77.9292 69.2361 77.4956C68.3244 76.8678 67.1758 76.6097 65.9833 76.5478V76.5483L65.9761 76.5478L65.9589 76.5469C65.0878 76.5031 64.0353 76.5884 63.1226 76.9835C61.9505 77.4911 61.0578 78.4002 60.917 79.9395C60.9038 80.0284 60.8967 80.1192 60.8967 80.2117C60.8967 82.6627 63.1597 83.3257 64.5305 83.7267L64.5379 83.7289C64.6047 83.7512 64.6732 83.7701 64.7436 83.785C64.9614 83.8312 65.013 83.8417 65.0835 83.856C65.1419 83.8678 65.2131 83.8822 65.402 83.9217C67.2899 84.3152 68.7713 84.6247 70.4451 85.5788C70.4726 85.596 70.5004 85.6126 70.529 85.6287C71.1393 85.9711 71.6224 86.3895 71.9312 86.8787C72.1965 87.299 72.3448 87.8048 72.3448 88.3974C72.3448 88.5686 72.3436 88.6672 72.3424 88.6963C72.2704 90.136 71.6283 91.1966 70.6739 91.8933C69.6206 92.6618 68.1689 93.0393 66.6211 93.0393C66.3935 93.0393 66.2354 93.0369 66.145 93.0325L66.1448 93.0346C66.1211 93.0334 66.0973 93.0327 66.0732 93.0325C63.9238 93.0117 61.8427 92.6214 60.4582 91.5902C59.8958 91.1713 59.4448 90.6216 59.1549 89.9147ZM73.5258 83.2596C73.3596 83.1239 73.1864 82.9942 73.0069 82.8704H73.5593C73.5468 82.9996 73.5354 83.1293 73.5258 83.2596ZM66.1546 80.3507L66.1465 80.349L65.5518 80.2229C65.5426 80.2205 65.5332 80.2183 65.5238 80.2164C65.5167 80.215 65.5095 80.2136 65.5024 80.2124C65.451 80.2016 65.3999 80.193 65.3488 80.1867C65.4947 80.1815 65.6433 80.1837 65.7869 80.1909L65.797 80.1914V80.1918C66.3817 80.222 66.886 80.3081 67.1597 80.4965C67.1863 80.5148 67.2092 80.5415 67.2278 80.5782C66.8804 80.502 66.5242 80.4278 66.1546 80.3507ZM63.5807 88.1998L63.592 88.2029C63.6223 88.2114 63.6526 88.2192 63.6832 88.2259C63.9097 88.2877 64.0202 88.3157 64.1439 88.3471C64.6126 88.4654 65.3052 88.616 65.9399 88.7539C66.3688 88.8471 66.7713 88.9345 67.0602 89.0024C66.5606 89.1252 65.9578 89.1526 65.5459 89.1526C65.4844 89.1526 65.4234 89.1556 65.3635 89.1615C64.8355 89.1585 64.3298 89.0203 63.9692 88.7482C63.7897 88.6127 63.6507 88.4296 63.5807 88.1998ZM90.5063 79.0986H89.9504C89.6158 78.3679 89.1494 77.7496 88.56 77.253C87.6208 76.462 86.419 76.0259 84.9896 75.9809L84.9674 75.9799C82.6955 75.9063 81.109 76.8145 80.0234 78.2297C78.8441 79.7671 78.3759 81.8751 78.2794 83.842C78.2695 83.9184 78.2647 83.9961 78.2647 84.0751C78.2647 85.8827 78.725 88.0616 79.8397 89.6992C80.8106 91.1258 82.229 92.1477 84.201 92.2804C84.2824 92.2914 84.3652 92.2973 84.4495 92.2973C85.8384 92.2973 87.0982 91.872 88.12 91.11C88.7421 90.6463 89.2696 90.0614 89.6771 89.3753L90.3948 89.458C89.9825 90.304 89.4478 90.9653 88.7947 91.4513C87.6969 92.2682 86.1956 92.6496 84.3167 92.6361L84.3046 92.6354C82.1197 92.5402 80.3361 91.6267 79.1035 90.2162C77.7817 88.7037 77.0661 86.6052 77.1334 84.3022H77.1328L77.1334 84.2807C77.1762 81.7675 77.9076 79.4958 79.3018 77.9316C80.4984 76.5888 82.2383 75.7581 84.509 75.7581C86.4839 75.7581 88.0304 76.1935 89.0952 77.0875C89.6913 77.5879 90.1646 78.2568 90.5063 79.0986Z" fill="#101416"/>
<path fill-rule="evenodd" clip-rule="evenodd" d="M7.48828 75.0657V94.5151H15.261C18.5177 94.5151 20.183 93.6786 22.2532 91.1369C23.6546 89.1635 23.8883 86.5978 23.8883 84.2495C23.8883 81.7334 23.3008 79.4454 21.5179 77.5991C19.9609 75.8524 17.8001 75.0657 15.4889 75.0657H7.48828ZM14.6906 90.8662H12.0503V78.8809H14.805C18.142 78.8809 19.323 82.2335 19.323 85.0471C19.323 88.0532 18.0836 90.8662 14.6906 90.8662ZM150.369 94.5151H162.848V90.9817H154.991V75.066H150.369V94.5151ZM137.646 75.1802L130.982 94.5715H135.933L139.16 84.2302L139.916 80.8951L140.8 84.2254L144.254 94.5715H149.205L142.372 75.1802H137.646ZM112.441 85.4432C112.441 90.8175 116.064 95.084 121.586 95.195C127.617 95.2502 131.469 91.2771 131.586 85.3281C131.643 79.5897 128.089 74.6135 121.983 74.6709C115.477 74.7815 112.441 79.329 112.441 85.4432ZM126.792 84.8787C126.69 87.7277 125.191 91.3768 121.87 91.4352C118.58 91.4352 117.117 87.8691 117.117 85.0475C117.117 82.1966 118.693 78.4768 122.041 78.5994C125.403 78.5994 126.792 81.965 126.792 84.8787ZM94.5011 94.5151H99.3502V86.4422H105.948V94.5151H110.74V75.066H106.06V82.5695H99.3502V75.066H94.5011V94.5151ZM25.6432 94.5151H30.3232V88.203H35.1333C38.4539 88.203 40.5775 85.0038 40.5775 81.9201C40.5775 78.0016 38.2489 75.066 34.1641 75.066H25.6432V94.5151ZM30.3232 84.3312V79.0541H33.764C35.3991 79.0541 36.0119 80.3563 36.0119 81.8033C36.0119 82.9836 35.1761 84.3312 33.8797 84.3312H30.3232ZM45.2697 75.1802L38.4954 94.5715H43.5581L46.8415 84.2302L47.6041 80.8678L48.3656 84.2261L51.82 94.5715H56.8268L49.9959 75.1802H45.2697ZM61.7089 88.0853H56.9695C57.0816 93.2373 61.5093 94.8102 66.0591 94.8544C70.2233 95.0622 74.1777 92.9708 74.1777 88.3973C74.1777 86.4368 73.1059 84.9797 71.4239 84.0353C69.2708 82.7908 67.5203 82.507 65.123 81.9987C64.2598 81.745 62.7295 81.3306 62.7295 80.2116C62.8121 78.5801 64.5854 78.3005 65.8901 78.3697C67.6679 78.4621 69.195 79.0571 69.1046 81.041H73.6606C73.5658 76.3313 69.6857 74.677 65.5443 74.6109C61.6887 74.6109 57.7664 76.3588 57.7664 80.7277C57.7664 84.645 60.9431 85.5574 64.086 86.4451C65.2467 86.7649 69.3939 87.6055 69.3274 89.2014C69.1796 90.7729 66.7244 90.9817 65.5459 90.9817C63.7193 91.0455 61.8615 90.0683 61.7089 88.0853ZM88.6216 80.9278H92.8459C92.1964 76.1828 89.2591 73.9287 84.5091 73.9287C78.5414 73.9287 75.4037 78.633 75.3079 84.2521C75.1498 89.6597 78.6635 94.2149 84.226 94.4574C88.8725 94.5148 91.813 92.475 92.8397 87.9012L88.5553 87.407C87.9904 89.2838 86.4215 90.4679 84.4496 90.4679C81.2566 90.3409 80.0978 86.7595 80.0978 84.075C80.2138 81.0593 81.2784 77.684 84.9102 77.8017C86.9408 77.8575 88.2378 78.9666 88.6216 80.9278Z" fill="#101416"/>
</g>
<defs>
<clipPath id="clip0_1144_9470">
<rect width="170" height="170" fill="white" transform="translate(0.435547 -0.000976562)"/>
</clipPath>
</defs>
</svg>
