<svg width="171" height="171" viewBox="0 0 171 171" fill="none" xmlns="http://www.w3.org/2000/svg">
<g opacity="0.5">
<g clip-path="url(#clip0_1144_9488)">
<path d="M72.9414 109.975C68.9797 109.762 66.0234 108.14 64.2945 105.229C63.1346 103.275 62.7816 100.705 63.3122 98.0794C63.9003 95.1697 65.8969 92.5478 68.9611 90.6619C70.7219 89.5775 72.2291 88.9044 75.2979 87.8309C76.0695 87.561 76.7354 87.3126 76.7783 87.2779C76.8399 87.2294 76.8486 87.0572 76.8178 86.4985C76.7296 84.9091 76.996 82.4327 77.4471 80.6457C78.2059 77.6384 79.666 75.2123 81.604 73.7407C82.995 72.6834 84.8185 71.8884 86.6339 71.5475C87.6366 71.3597 89.3155 71.3603 90.259 71.5493C94.3014 72.3593 96.5702 75.4602 95.6768 78.954C95.4887 79.6906 94.8942 80.8982 94.3908 81.5661C93.1014 83.2774 91.1617 84.7993 88.4226 86.2472C88.0784 86.4298 86.9509 86.981 85.9181 87.4732C84.8853 87.9649 84.0081 88.4 83.9674 88.4404C83.9099 88.4976 83.9245 88.6646 84.0359 89.2262C84.5497 91.8227 85.4136 94.0165 86.8888 96.4697C87.4752 97.4461 88.2862 98.6774 88.3785 98.7346C88.5121 98.8166 89.0578 97.939 89.4137 97.0706C89.8537 95.9959 90.1057 94.5746 89.9815 93.8686C89.892 93.363 89.6145 92.8292 89.2604 92.4842C89.0978 92.3248 88.9632 92.174 88.9626 92.1491C88.962 92.1249 90.3368 92.111 92.0186 92.1197L95.0765 92.1353L95.059 92.5212C95.0352 93.0487 94.8384 94.1736 94.6312 94.9744C94.0465 97.226 92.9446 99.1517 91.0398 101.255C90.8151 101.503 90.6311 101.746 90.6311 101.796C90.6311 101.845 90.9469 102.19 91.3324 102.562C93.74 104.885 98.0048 107.563 101.477 108.933C101.814 109.067 102.09 109.203 102.088 109.235C102.087 109.274 100.083 109.3 96.23 109.31L90.3733 109.325L90.0401 109.138C89.3597 108.758 87.8531 107.546 86.4058 106.215C86.0992 105.933 85.809 105.702 85.7608 105.702C85.7126 105.702 85.3718 105.9 85.0049 106.14C83.1244 107.375 80.8771 108.483 78.9763 109.114C76.8143 109.832 75.0297 110.087 72.9414 109.975V109.975ZM77.8727 104.925C78.7493 104.769 79.8263 104.453 80.8167 104.059C81.8124 103.664 83.0466 103.06 83.0908 102.945C83.1082 102.9 82.88 102.521 82.5845 102.101C81.2219 100.169 79.7665 97.4519 78.7882 95.0149C78.4277 94.1164 77.7543 92.1266 77.6254 91.5812C77.5847 91.4073 77.511 91.2495 77.4617 91.2305C77.3252 91.1785 76.2065 91.7718 75.2398 92.4097C71.8041 94.6763 70.157 97.4432 70.5228 100.334C70.6853 101.619 71.0941 102.556 71.8378 103.347C73.2125 104.809 75.3618 105.371 77.8727 104.925ZM83.7044 84.8207C84.9758 84.08 86.9927 82.2814 88.1208 80.8832C89.5646 79.0938 90.3321 77.424 90.3327 76.0697C90.3327 75.2955 90.2224 74.9489 89.8624 74.5906C89.5042 74.2347 89.1002 74.0874 88.483 74.0868C86.6519 74.0868 84.6716 76.25 83.8089 79.1932C83.3735 80.6769 83.2678 81.4754 83.2649 83.2878C83.2626 84.6722 83.2853 84.9801 83.3898 84.9801C83.4124 84.9801 83.5541 84.9085 83.7044 84.8207ZM113.988 109.94C110.971 109.638 108.983 109.189 106.739 108.305C103.687 107.101 101.781 105.609 100.171 103.166C99.689 102.435 98.9157 100.899 98.6034 100.05C97.2071 96.2686 96.9006 91.5078 97.7325 86.5413C98.5749 81.5147 100.494 76.67 103.141 72.8833C104.858 70.4278 107.413 67.8417 110.051 65.8888C114.406 62.6649 119.419 60.6831 124.989 59.9863C126.678 59.7749 127.624 59.7205 129.62 59.7217C132.638 59.7234 134.937 59.9522 137.973 60.5525C139.91 60.9362 142.995 61.7647 143.054 61.9178C143.084 61.9952 141.129 68.23 141.049 68.3137C141.024 68.3397 140.724 68.1404 140.383 67.8689C137.637 65.6907 134.792 64.3647 131.915 63.9238C130.996 63.7829 129.269 63.7811 128.368 63.9204C124.334 64.542 120.594 67.1068 117.274 71.5285C116.195 72.9648 115.007 74.8899 114.082 76.6972C112.83 79.147 111.969 81.3124 111.098 84.2082C108.324 93.4214 108.184 99.8583 110.68 103.343C111.708 104.779 113.211 105.693 115.119 106.043C116.214 106.244 118.871 106.122 119.136 105.859C119.178 105.817 120.476 101.777 122.019 96.8805C124.555 88.8373 124.829 87.9302 124.858 87.4744C124.896 86.8619 124.782 86.3148 124.505 85.7879C124.254 85.3089 123.59 84.6589 123.042 84.3567C122.806 84.2261 122.612 84.099 122.611 84.0748C122.611 84.0505 126.865 84.0303 132.066 84.0303C137.267 84.0303 141.522 84.0505 141.522 84.0748C141.522 84.099 141.291 84.2244 141.01 84.3521C139.538 85.0223 138.47 86.0265 137.836 87.3403C137.698 87.6246 136.508 91.3038 134.721 96.9695L131.828 106.139L130.992 106.537C127.587 108.164 123.421 109.335 119.266 109.835C118.503 109.927 114.627 110.004 113.989 109.94H113.988ZM26.9453 109.27C26.9261 109.24 27.0521 109.134 27.2245 109.035C28.2521 108.446 29.4057 107.225 29.8945 106.207C30.0362 105.912 43.0077 64.798 43.2939 63.7355C43.3444 63.5494 43.3868 63.1565 43.3874 62.863C43.3914 61.9663 43.1116 61.3198 42.4527 60.6993C42.2727 60.53 42.1258 60.3665 42.1258 60.3359C42.1258 60.2544 64.7764 60.2613 65.815 60.3434C68.0641 60.5208 70.3155 61.1159 72.0375 61.9871C74.9774 63.4749 76.7377 65.7328 77.2788 68.7101C77.4297 69.5386 77.4588 71.3817 77.3351 72.2738C76.8312 75.9103 75.1754 79.7675 72.9211 82.5581C69.2694 87.0786 63.2971 89.9692 55.9675 90.7642C53.6441 91.0161 50.7164 91.0797 48.6432 90.9225C48.044 90.8769 47.5413 90.852 47.5262 90.867C47.4524 90.941 42.776 105.874 42.7226 106.207C42.5577 107.235 43.0895 108.39 44.0062 108.996C44.1874 109.115 44.3197 109.238 44.3012 109.268C44.2547 109.343 26.9911 109.344 26.9447 109.269L26.9453 109.27ZM52.656 87.0907C54.3588 86.7903 55.8613 86.1628 57.311 85.1477C58.0152 84.6549 59.4619 83.2168 60.0588 82.4166C61.552 80.4157 62.6504 78.055 63.5363 74.9454C64.1006 72.9636 64.341 71.4539 64.3404 69.898C64.3404 68.6985 64.2312 67.9821 63.9282 67.1784C63.4783 65.9859 62.5621 65.0436 61.3981 64.5756C60.3984 64.1734 59.545 64.0677 57.4921 64.0914L55.9443 64.1087L52.3466 75.5093C50.3686 81.7799 48.7605 86.9405 48.7738 86.9775C48.7877 87.0145 49.0362 87.0769 49.3253 87.1162C49.6156 87.1554 49.8925 87.197 49.9419 87.2092C50.1672 87.2641 52.1724 87.1768 52.656 87.0913V87.0907Z" fill="#101416"/>
</g>
</g>
<defs>
<clipPath id="clip0_1144_9488">
<rect width="116.112" height="50.2783" fill="white" transform="translate(26.9424 59.7217)"/>
</clipPath>
</defs>
</svg>
