<svg width="170" height="170" viewBox="0 0 170 170" fill="none" xmlns="http://www.w3.org/2000/svg">
<g opacity="0.5">
<path fill-rule="evenodd" clip-rule="evenodd" d="M84.0553 133.501C111.533 133.501 133.808 111.226 133.808 83.7487C133.808 56.2711 111.533 33.9961 84.0553 33.9961C56.5777 33.9961 34.3027 56.2711 34.3027 83.7487C34.3027 111.226 56.5777 133.501 84.0553 133.501ZM43.0881 94.0112C42.6273 94.0112 42.283 94.3027 42.283 94.852V101.529C42.283 101.98 42.5608 102.128 42.9205 102.242C46.9135 103.62 49.1388 104.1 52.4998 104.1C60.7419 104.1 65.2909 99.0211 65.2909 92.8312C65.2909 88.6339 63.0048 85.301 59.4196 83.861C57.9963 83.2051 55.0246 82.4078 53.7482 82.0653C53.5833 82.0211 53.4468 81.9844 53.3455 81.9567L53.1571 81.897C51.407 81.3437 50.1196 80.9366 50.1196 79.537C50.1196 77.9669 51.4123 76.5345 54.7141 76.5345C57.6468 76.5022 61.9319 78.1591 61.9319 78.1591C61.9319 78.1591 62.4454 78.3822 62.6967 78.3822C63.1285 78.3822 63.3569 78.0135 63.3569 77.5213V70.9943C63.3569 70.5987 63.0068 70.4797 62.6554 70.3603L62.6444 70.3565C62.6444 70.3565 58.9089 68.9269 54.3418 68.9269C47.4462 68.9269 41.9061 73.1108 41.9061 79.8749C41.9061 82.7029 42.8253 84.9204 44.6168 86.5618C46.0783 87.9456 48.059 88.7797 49.6326 89.3752C50.4883 89.7037 51.3205 89.9324 52.1465 90.1594L52.1466 90.1594C52.9161 90.3709 53.6803 90.5809 54.4533 90.8688C55.0652 91.0967 55.6633 91.3705 56.1948 91.6635C56.679 91.9086 57.0662 92.304 57.0662 93.4384C57.0662 95.5138 55.0795 96.3303 52.7528 96.3303C49.4594 96.338 46.6827 95.3048 43.8579 94.2143L43.8543 94.2128C43.6321 94.1183 43.3802 94.0112 43.0881 94.0112ZM108.861 77.4836H103.93C103.569 77.4836 103.255 77.2737 103.255 76.8084V69.7936C103.255 69.4484 103.528 69.1746 103.855 69.1746H108.861V59.3277C108.861 58.9209 109.106 58.6524 109.555 58.6524H116.717C117.134 58.6524 117.392 58.9353 117.392 59.3277V69.1746H123.579C124.042 69.1746 124.329 69.416 124.329 69.9062V76.7709C124.329 77.2219 124.036 77.4836 123.617 77.4836H117.392V89.479C117.392 90.6189 117.436 93.1061 118.763 94.3884C119.851 95.4518 121.903 95.677 123.654 95.677C124.031 95.677 124.329 95.9482 124.329 96.3522V103.292C124.329 103.662 124.107 103.986 123.639 103.986H122.589C117.095 103.986 114.067 102.027 112.317 100.26C109.907 97.773 108.861 94.7291 108.861 89.7125V77.4836ZM68.7534 52.0166C68.7534 51.6577 69.0018 51.3787 69.3908 51.3787H76.6467C76.9676 51.3787 77.2841 51.6133 77.2841 52.0166V72.4231C77.2841 72.4231 80.9989 69.3823 86.4571 69.3823C95.671 69.3823 103.458 77.3404 103.458 86.7376C103.458 95.9673 95.873 104.088 85.8993 104.088C81.6867 104.088 76.5158 102.403 72.8488 98.2164C70.2454 95.2438 68.7534 92.0918 68.7534 84.9183V52.0166ZM94.9093 86.7646C94.9093 81.4573 90.8654 77.6936 85.8419 77.6936C80.1675 77.6936 76.8916 82.223 76.8916 86.488C76.8916 91.3284 80.3496 95.7956 85.7376 95.7956C90.574 95.7956 94.9093 92.1827 94.9093 86.7646Z" fill="#101416"/>
</g>
</svg>
