<svg width="171" height="170" viewBox="0 0 171 170" fill="none" xmlns="http://www.w3.org/2000/svg">
<g opacity="0.5" clip-path="url(#clip0_1144_9475)">
<path fill-rule="evenodd" clip-rule="evenodd" d="M160.107 66.7707C160.112 68.8306 159.385 72.0465 157.107 74.32C156.488 74.9414 155.8 75.4919 155.057 75.9608C153.989 76.6528 153.212 77.1345 153.649 78.2873C154.076 79.416 155.397 79.0627 156.652 78.7786C157.055 78.6806 164.919 76.7909 165.019 76.7861C166.033 76.5942 167.083 76.7964 167.95 77.3509C168.818 77.9053 169.437 78.7695 169.679 79.7644L170.322 82.4055C170.565 83.4007 170.414 84.4507 169.9 85.3389C169.386 86.227 168.548 86.8856 167.558 87.1788C167.469 87.2173 158.875 89.2948 158.86 89.2981C157.228 89.7155 156.273 90.5247 156.28 92.0917C156.28 92.7901 156.689 93.5495 157.193 94.1789C157.193 94.1789 166.564 105.67 166.611 105.76C167.223 106.584 167.493 107.611 167.365 108.627C167.237 109.643 166.721 110.572 165.923 111.222L163.802 112.94C163.004 113.587 161.985 113.905 160.957 113.827C159.928 113.749 158.97 113.281 158.281 112.521C158.205 112.456 152.384 105.381 151.767 104.628C151.15 103.88 150.375 102.736 149.297 102.741C148.225 102.741 147.454 103.891 146.839 104.642C146.225 105.397 140.437 112.501 140.366 112.564C139.68 113.328 138.724 113.802 137.696 113.885C136.668 113.969 135.647 113.657 134.845 113.014C134.827 112.997 132.724 111.307 132.717 111.305C131.917 110.659 131.396 109.733 131.263 108.718C131.129 107.702 131.392 106.675 131.999 105.846C132.044 105.756 141.362 94.219 141.362 94.219C141.86 93.5881 142.267 92.8254 142.265 92.127C142.259 90.56 141.305 89.7556 139.668 89.3462C139.654 89.3462 131.05 87.3072 130.962 87.2703C129.971 86.9817 129.13 86.3272 128.611 85.4416C128.092 84.5559 127.935 83.5066 128.173 82.5098C128.176 82.4857 128.799 79.8719 128.803 79.8639C129.04 78.8683 129.655 78.0015 130.519 77.4427C131.384 76.8839 132.431 76.6758 133.446 76.8615C133.543 76.8615 141.418 78.7208 141.823 78.8155C143.078 79.0916 144.405 79.4416 144.825 78.3097C145.254 77.1537 144.477 76.6753 143.405 75.9897C142.659 75.5248 141.968 74.9776 141.345 74.3585C139.056 72.0995 138.313 68.8836 138.308 66.8237C138.295 60.9153 143.24 56.1147 149.182 56.0987C155.124 56.0826 160.093 60.8623 160.106 66.7707H160.107ZM15.7044 102.499C15.2348 102.499 13.4344 102.255 12.4436 100.458L0.885056 80.0919C-0.300099 77.934 1.09553 76.1037 2.3325 75.6494L5.40711 74.2798C7.06017 73.5445 9.05 74.3216 9.79477 76.0411L17.0449 90.5375H17.1534L24.4133 76.0411C25.1581 74.3232 27.1447 73.5445 28.801 74.2798L31.8756 75.6494C33.1109 76.1037 34.5066 77.934 33.3214 80.0919L21.7629 100.458C21.4414 101.048 20.9722 101.545 20.4005 101.902C19.8287 102.259 19.1738 102.464 18.4989 102.497H15.706L15.7044 102.499ZM66.4912 102.499C65.8164 102.466 65.1616 102.26 64.5901 101.903C64.0186 101.545 63.5498 101.048 63.2288 100.458L51.6687 80.0919C50.4819 77.934 51.8807 76.1037 53.1177 75.6494L56.1907 74.2798C57.8454 73.5445 59.8304 74.3216 60.5784 76.0411L67.8318 90.5375H67.9386L75.1969 76.0411C75.9433 74.3232 77.9299 73.5445 79.5846 74.2798L82.6592 75.6494C83.8945 76.1037 85.2918 77.934 84.1082 80.0919L72.5481 100.458C72.227 101.048 71.7579 101.545 71.1861 101.903C70.6142 102.26 69.9591 102.465 69.2841 102.497H66.4928L66.4912 102.499ZM100.412 74.1C108.385 74.1 114.84 80.5222 114.84 88.4407C114.84 96.364 108.384 102.788 100.414 102.788C92.448 102.788 85.988 96.364 85.988 88.4407C85.988 80.5238 92.448 74.1 100.414 74.1H100.412ZM48.1423 65.9358C48.1423 69.0409 45.6101 71.5552 42.4886 71.5552C41.745 71.5548 41.0089 71.4091 40.3222 71.1264C39.6355 70.8437 39.0117 70.4296 38.4865 69.9077C37.9613 69.3858 37.545 68.7664 37.2613 68.0849C36.9776 67.4034 36.8321 66.6731 36.8332 65.9358C36.8332 62.8307 39.3654 60.3164 42.4886 60.3164C43.2319 60.3173 43.9677 60.4633 44.6541 60.7461C45.3406 61.029 45.9641 61.4432 46.4891 61.965C47.0141 62.4868 47.4303 63.106 47.7139 63.7873C47.9976 64.4687 48.1432 65.1987 48.1423 65.9358ZM100.414 94.105C101.926 94.1025 103.376 93.5043 104.444 92.4421C105.512 91.3799 106.11 89.9406 106.108 88.4407C106.109 86.9415 105.51 85.5032 104.442 84.4419C103.375 83.3807 101.926 82.7833 100.414 82.7812C99.6652 82.782 98.9241 82.9291 98.2328 83.2139C97.5414 83.4988 96.9135 83.9159 96.3847 84.4415C95.856 84.967 95.4368 85.5907 95.151 86.2769C94.8653 86.963 94.7187 87.6983 94.7196 88.4407C94.7183 89.1834 94.8646 89.9191 95.1501 90.6058C95.4356 91.2924 95.8547 91.9166 96.3835 92.4426C96.9123 92.9686 97.5404 93.3861 98.2319 93.6714C98.9234 93.9566 99.6649 94.104 100.414 94.105ZM37.5682 77.8634C37.5682 75.948 39.1274 74.3954 41.0541 74.3954H43.9716C45.8983 74.3954 47.4591 75.948 47.4591 77.8634V99.0325C47.4591 100.948 45.8983 102.499 43.9716 102.499H41.0541C40.5955 102.498 40.1414 102.408 39.718 102.234C39.2945 102.059 38.9099 101.804 38.5861 101.481C38.2624 101.159 38.0058 100.777 37.8312 100.357C37.6565 99.9361 37.5672 99.4856 37.5682 99.0308V77.865V77.8634Z" fill="#101416"/>
</g>
<defs>
<clipPath id="clip0_1144_9475">
<rect width="170" height="170" fill="white" transform="translate(0.435547 -0.000976562)"/>
</clipPath>
</defs>
</svg>
