<svg width="171" height="170" viewBox="0 0 171 170" fill="none" xmlns="http://www.w3.org/2000/svg">
<g opacity="0.5">
<g clip-path="url(#clip0_1144_9477)">
<path d="M111.215 96.5141C114.126 96.6868 116.72 96.926 119.293 97.318C121.907 97.7166 124.487 98.268 127.027 98.9922C127.723 99.1915 128.214 99.1052 128.818 98.6999C134.834 94.6604 140.584 90.2223 146.806 86.4951C148.006 85.7776 149.26 85.1398 150.5 84.4887C151.196 84.1233 151.933 84.0436 152.662 84.3957C153.69 84.894 153.77 85.7909 152.848 86.442C152.768 86.4951 152.682 86.5483 152.596 86.5948C146.534 89.5247 141.241 93.6439 135.749 97.4575C134.363 98.4209 132.97 99.3909 131.504 100.407C134.124 101.477 136.571 102.626 138.714 104.301C140.77 105.908 142.448 107.802 142.627 110.586C142.786 113.077 141.765 115.177 140.272 117.064C137.984 119.967 134.913 121.86 131.577 123.242C124.261 126.279 116.826 129.016 108.999 130.451C106.326 130.943 103.587 131.102 100.914 130.557C97.6044 129.88 96.3309 126.81 97.9559 123.834C99.7069 120.638 102.333 118.239 105.113 115.987C111.102 111.131 117.244 106.473 123.651 102.175C123.89 102.015 124.109 101.836 124.453 101.583C122.159 100.853 119.917 100.567 117.668 100.321C114.909 100.015 112.137 99.8626 109.404 99.3311C108.834 99.2181 108.25 99.0786 107.719 98.8527C106.379 98.2813 106.074 97.2117 106.897 95.9958C107.633 94.9063 108.714 94.2153 109.822 93.5775C113.728 91.3186 117.177 88.4883 120.275 85.2262C121.25 84.1964 122.033 83.0403 122.391 81.6385C122.802 80.0307 122.205 78.8547 120.64 78.3298C118.71 77.6787 116.773 77.8914 114.856 78.4162C111.831 79.2401 109.132 80.7416 106.499 82.3892C105.855 82.7945 105.199 83.1533 104.403 83.047C103.607 82.9407 102.811 82.8277 102.639 81.8312C102.586 81.5322 102.387 81.5056 102.148 81.4657C98.9707 80.9342 95.7804 80.8811 92.5768 81.1668C92.1921 81.2 91.9268 81.2531 91.9268 81.778C91.9533 85.7975 91.7344 89.8304 92.3712 93.83C92.4972 94.6339 92.6697 95.4378 93.0278 96.1819C93.5717 97.3246 94.1885 97.4575 95.1503 96.6071C96.0722 95.7899 97.1202 95.6238 98.2544 95.9958C99.1034 96.2749 99.2957 96.9127 98.7054 97.5771C97.3059 99.1517 95.5814 100.148 93.4324 100.228C91.4227 100.301 89.7977 99.1517 89.0018 97.1386C88.3451 95.4776 88.0997 93.717 88.0599 91.9564C87.9936 88.9135 87.9936 85.8706 88.0467 82.8277C88.0599 82.0039 87.8013 81.9109 87.1115 82.0903C83.9676 82.8809 80.9497 83.9838 78.091 85.5251C77.3813 85.9038 76.6584 86.1762 75.8558 85.8042C74.8145 85.3325 74.6685 84.3691 75.5374 83.6383C75.8094 83.4124 76.1344 83.2397 76.4461 83.0736C79.842 81.2996 83.4171 79.9975 87.1579 79.167C87.7681 79.0341 87.9405 78.8215 87.9207 78.2103C87.788 73.234 87.788 68.2578 88.239 63.3014C88.3916 61.6405 88.5972 59.9862 88.8559 58.3385C89.0681 56.9964 91.31 56.1194 92.4375 56.8835C92.8355 57.1559 92.9482 57.5279 92.862 57.993C91.7344 64.4841 92.0395 71.0415 91.9666 77.5791C91.96 78.2368 92.1656 78.3232 92.7559 78.2568C96.7421 77.8448 100.762 77.8448 104.628 78.8481C106.001 79.2002 106.804 78.8082 107.792 78.3033C111.135 76.6024 114.611 75.36 118.378 75.0677C120.228 74.9215 122.033 75.1341 123.737 75.9048C126.39 77.1074 127.405 79.5988 126.364 82.3228C125.747 83.9439 124.706 85.286 123.512 86.5084C120.328 89.7706 116.779 92.6075 113.045 95.2052C112.515 95.5839 111.991 95.9626 111.215 96.5141ZM105.186 128.052C105.577 128.013 106.167 127.999 106.744 127.9C114.12 126.631 121.243 124.478 128.161 121.641C131.153 120.412 134.071 119.017 136.439 116.731C139.868 113.416 139.636 109.33 135.882 106.4C133.739 104.733 131.272 103.736 128.738 102.866C128.334 102.726 128.062 102.872 127.763 103.085C123.319 106.181 118.836 109.224 114.558 112.552C111.029 115.296 107.421 117.96 104.343 121.236C103.381 122.259 102.42 123.295 101.71 124.518C100.821 126.046 101.378 127.355 103.056 127.866C103.693 128.052 104.337 128.019 105.186 128.052Z" fill="#101416"/>
<path d="M161.776 56.565C161.776 60.95 161.776 65.3349 161.776 69.7199C161.776 72.9754 158.963 75.1213 155.853 74.1513C149.406 72.1449 142.998 70.0188 136.538 68.0722C132.486 66.8564 131.345 65.707 131.517 61.229C131.63 58.319 131.544 55.409 131.537 52.4924C131.537 50.8713 131.113 50.2534 129.627 49.6687C128.778 49.3299 127.936 48.9844 127.073 48.6721C126.463 48.4463 125.886 48.1672 125.919 47.4032C125.952 46.5926 126.583 46.3734 127.252 46.194C134.349 44.3337 141.44 42.4668 148.537 40.6065C150.964 39.9687 153.399 39.3508 155.833 38.7595C156.755 38.5336 157.716 38.4871 158.645 38.7462C160.509 39.2711 161.769 41.0051 161.776 43.0116C161.782 47.536 161.776 52.0539 161.776 56.565ZM141.002 56.2196C140.995 54.8244 139.808 53.6418 138.448 53.6683C137.142 53.6949 135.948 54.9307 135.974 56.2196C136.001 57.5483 137.175 58.6778 138.521 58.6844C139.908 58.6911 141.009 57.5948 141.002 56.2196ZM154.718 58.6844C156.091 58.6911 157.212 57.5882 157.219 56.2262C157.226 54.8709 156.098 53.7481 154.732 53.7481C153.372 53.7481 152.225 54.8842 152.225 56.2196C152.225 57.5816 153.339 58.6844 154.718 58.6844ZM149.074 56.2661C149.081 54.8244 148.053 53.7547 146.64 53.7547C145.28 53.7547 144.126 54.9041 144.133 56.2461C144.139 57.5749 145.234 58.6711 146.567 58.6911C148.026 58.711 149.067 57.7011 149.074 56.2661Z" fill="#101416"/>
<path d="M80.6513 47.6884C80.6447 52.1996 79.8819 56.7706 78.3564 61.1821C76.015 67.9522 71.4186 72.9284 65.5553 76.8018C64.6665 77.3931 64.4078 77.9645 64.4742 79.0009C64.9849 86.6945 67.1869 93.7436 72.1946 99.7497C72.5926 100.228 73.0303 100.667 73.4416 101.138C73.8926 101.656 73.7997 102.141 73.3288 102.6C72.2344 103.656 70.5232 103.63 69.4951 102.527C64.6333 97.3247 61.9604 91.0794 60.7997 84.1233C60.6007 82.9341 60.4879 81.7249 60.3752 80.5224C60.3287 80.0108 60.2292 79.8248 59.6787 80.0905C55.6593 82.0239 51.4343 83.3128 47.0501 84.0702C46.4532 84.1698 46.2144 84.4024 46.2343 85.08C46.294 87.2592 45.9093 89.3786 45.0868 91.3983C43.5016 95.2784 39.2235 97.3911 35.3235 96.255C31.8281 95.2318 29.6128 91.7505 30.2694 88.1096C30.8398 84.9538 32.0735 82.0504 33.9572 79.4461C34.5541 78.6222 35.2638 77.8848 36.1659 77.3931C37.6118 76.6025 39.1108 76.9015 40.0393 78.2169C40.2715 78.5491 40.5103 78.5093 40.7888 78.4893C42.898 78.3432 44.47 79.1803 45.4317 81.0738C45.6108 81.4193 45.7899 81.4591 46.1149 81.3993C50.8705 80.5822 55.3874 79.0541 59.692 76.8749C60.1828 76.6224 60.1894 76.2703 60.1961 75.8384C60.2956 65.5737 62.9022 55.8936 67.1405 46.6188C68.2017 44.2934 69.4752 42.0943 71.3523 40.2938C72.8579 38.8455 74.6288 38.3272 76.6584 38.6461C78.8273 38.9916 80.313 40.812 80.6181 43.3965C80.7574 44.7718 80.7906 46.1404 80.6513 47.6884ZM64.5206 73.9516C64.7063 73.9184 64.7793 73.925 64.8257 73.8918C64.965 73.8054 65.091 73.6991 65.217 73.5995C68.7456 70.9818 71.5114 67.7263 73.415 63.7599C76.287 57.7738 76.9237 51.3691 76.811 44.8449C76.7977 44.0742 76.6385 43.2836 76.2936 42.566C75.7298 41.3901 74.8079 41.2107 73.8926 42.1408C73.1497 42.8916 72.6854 43.8416 72.188 44.7585C69.3359 49.9872 67.6048 55.6212 66.2982 61.3947C65.3696 65.5072 64.6134 69.653 64.5206 73.9516ZM37.2072 81.2598C36.0664 82.7348 35.3301 84.2496 34.8062 85.8707C34.1561 87.8771 34.2357 89.8769 35.1245 91.7903C35.9337 93.5377 37.4725 94.109 39.2832 93.4513C40.5036 93.0062 41.2598 92.1026 41.7506 90.9466C42.4337 89.3387 42.4404 87.6446 42.374 85.9371C42.3409 85.0933 42.1154 84.7944 41.1934 84.7545C38.6531 84.6482 37.3531 83.4722 37.2072 81.2598Z" fill="#101416"/>
<path d="M14.5501 101.258C15.2664 100.368 15.6511 99.4378 16.0624 98.5276C18.47 93.2258 20.0022 87.6184 21.7466 82.0907C22.5292 79.6059 23.2854 77.1078 24.2935 74.6961C24.665 73.8191 25.1094 72.9886 25.7527 72.2777C26.7277 71.2147 28.1073 70.8958 29.3145 71.4273C29.8849 71.6798 30.243 72.1116 29.7987 72.6431C26.7211 76.2839 26.1573 80.9413 24.6782 85.2199C23.2124 89.472 22.2109 93.8769 20.3471 97.9828C19.5379 99.7633 18.7088 101.544 17.296 102.966C16.6925 103.57 16.0425 104.102 15.2664 104.487C13.2899 105.464 11.6914 104.906 10.7827 102.886C10.1394 101.464 9.96692 99.9294 9.80111 98.408C9.09804 91.9634 8.77967 85.499 8.61386 79.0279C8.59396 78.3701 8.46794 77.7323 8.27559 77.1078C8.07661 76.4567 8.32202 75.9717 8.8659 75.593C10.4577 74.4968 12.1623 75.1213 12.3812 77.0081C12.6067 78.9548 12.62 80.9214 12.7062 82.8813C12.8986 87.2596 13.0047 91.6445 13.522 95.9963C13.7343 97.7303 13.9001 99.4843 14.5501 101.258Z" fill="#101416"/>
</g>
</g>
<defs>
<clipPath id="clip0_1144_9477">
<rect width="153.567" height="92.3429" fill="white" transform="translate(8.21582 38.5596)"/>
</clipPath>
</defs>
</svg>
