<svg width="241" height="80" viewBox="0 0 241 80" fill="none" xmlns="http://www.w3.org/2000/svg">
<rect x="20" y="20" width="10" height="10" fill="#FFCF0D"/>
<rect x="20" y="40" width="10" height="10" fill="#FFCF0D"/>
<rect x="20" y="50" width="10" height="10" fill="#FFCF0D"/>
<rect x="30" y="50" width="10" height="10" fill="#FFCF0D"/>
<rect x="40" y="20" width="10" height="10" fill="#FFCF0D"/>
<rect x="50" y="20" width="10" height="10" fill="#FFCF0D"/>
<rect x="50" y="30" width="10" height="10" fill="#FFCF0D"/>
<rect x="50" y="50" width="10" height="10" fill="#FFCF0D"/>
<path d="M89.368 40.5212C90.808 41.0252 91.936 41.8172 92.752 42.8972C93.568 43.9532 93.976 45.2372 93.976 46.7492C93.976 48.9572 93.088 50.6612 91.312 51.8612C89.536 53.0612 86.968 53.6612 83.608 53.6612H70V28.4612H82.888C86.104 28.4612 88.552 29.0612 90.232 30.2612C91.912 31.4372 92.752 33.0332 92.752 35.0492C92.752 36.2492 92.452 37.3292 91.852 38.2892C91.276 39.2252 90.448 39.9692 89.368 40.5212ZM77.056 33.6092V38.4692H81.952C84.352 38.4692 85.552 37.6532 85.552 36.0212C85.552 34.4132 84.352 33.6092 81.952 33.6092H77.056ZM83.032 48.5132C85.528 48.5132 86.776 47.6612 86.776 45.9572C86.776 44.2532 85.528 43.4012 83.032 43.4012H77.056V48.5132H83.032Z" fill="#101416"/>
<path d="M117.144 34.1492V53.6612H110.628V51.5732C109.908 52.3652 109.044 52.9652 108.036 53.3732C107.028 53.7812 105.96 53.9852 104.832 53.9852C102.312 53.9852 100.296 53.2412 98.784 51.7532C97.296 50.2652 96.552 48.0332 96.552 45.0572V34.1492H103.392V43.9412C103.392 45.4052 103.668 46.4732 104.22 47.1452C104.772 47.8172 105.576 48.1532 106.632 48.1532C107.712 48.1532 108.588 47.7812 109.26 47.0372C109.956 46.2692 110.304 45.1052 110.304 43.5452V34.1492H117.144Z" fill="#101416"/>
<path d="M120.83 34.1492H127.67V53.6612H120.83V34.1492Z" fill="#101416"/>
<path d="M131.395 26.0146H138.235V53.6612H131.395V26.0146Z" fill="#101416"/>
<path d="M162.696 26.0146V53.6612H156.18V51.7172C154.908 53.2292 153 53.9852 150.456 53.9852C148.68 53.9852 147.06 53.5772 145.596 52.7612C144.132 51.9212 142.968 50.7332 142.104 49.1972C141.264 47.6612 140.844 45.8852 140.844 43.8692C140.844 41.8532 141.264 40.0892 142.104 38.5772C142.968 37.0412 144.132 35.8652 145.596 35.0492C147.06 34.2332 148.68 33.8252 150.456 33.8252C152.784 33.8252 154.584 34.4972 155.856 35.8412V26.0146H162.696ZM151.896 48.5492C153.072 48.5492 154.044 48.1412 154.812 47.3252C155.58 46.4852 155.964 45.3332 155.964 43.8692C155.964 42.4292 155.58 41.3012 154.812 40.4852C154.068 39.6692 153.096 39.2612 151.896 39.2612C150.696 39.2612 149.712 39.6692 148.944 40.4852C148.176 41.3012 147.792 42.4292 147.792 43.8692C147.792 45.3332 148.176 46.4852 148.944 47.3252C149.712 48.1412 150.696 48.5492 151.896 48.5492Z" fill="#101416"/>
<path d="M186.321 43.9412C186.321 43.9892 186.285 44.5532 186.213 45.6332H172.029C172.317 46.6412 172.869 47.4212 173.685 47.9732C174.525 48.5012 175.569 48.7652 176.817 48.7652C177.753 48.7652 178.557 48.6332 179.229 48.3692C179.925 48.1052 180.621 47.6732 181.317 47.0732L184.917 50.8172C183.021 52.9292 180.249 53.9852 176.601 53.9852C174.321 53.9852 172.317 53.5532 170.589 52.6892C168.861 51.8252 167.517 50.6252 166.557 49.0892C165.621 47.5532 165.153 45.8132 165.153 43.8692C165.153 41.9492 165.609 40.2332 166.521 38.7212C167.457 37.1852 168.741 35.9852 170.373 35.1212C172.005 34.2572 173.841 33.8252 175.881 33.8252C177.825 33.8252 179.589 34.2332 181.173 35.0492C182.757 35.8412 184.005 37.0052 184.917 38.5412C185.853 40.0532 186.321 41.8532 186.321 43.9412ZM175.917 38.6852C174.861 38.6852 173.973 38.9852 173.253 39.5852C172.557 40.1852 172.113 41.0012 171.921 42.0332H179.913C179.721 41.0012 179.265 40.1852 178.545 39.5852C177.849 38.9852 176.973 38.6852 175.917 38.6852Z" fill="#101416"/>
<path d="M195.27 36.4892C195.966 35.6012 196.866 34.9412 197.97 34.5092C199.098 34.0532 200.382 33.8252 201.822 33.8252V39.9812C201.198 39.9092 200.682 39.8732 200.274 39.8732C198.81 39.8732 197.658 40.2692 196.818 41.0612C196.002 41.8532 195.594 43.0652 195.594 44.6972V53.6612H188.754V34.1492H195.27V36.4892Z" fill="#101416"/>
<path d="M211.052 53.9852C209.42 53.9852 207.812 53.8052 206.228 53.4452C204.644 53.0612 203.372 52.5692 202.412 51.9692L204.464 47.2892C205.352 47.8412 206.408 48.2852 207.632 48.6212C208.856 48.9332 210.068 49.0892 211.268 49.0892C212.372 49.0892 213.152 48.9812 213.608 48.7652C214.088 48.5252 214.328 48.1892 214.328 47.7572C214.328 47.3252 214.04 47.0252 213.464 46.8572C212.912 46.6652 212.024 46.4852 210.8 46.3172C209.24 46.1252 207.908 45.8732 206.804 45.5612C205.724 45.2492 204.788 44.6732 203.996 43.8332C203.204 42.9932 202.808 41.8172 202.808 40.3052C202.808 39.0572 203.18 37.9532 203.924 36.9932C204.668 36.0092 205.748 35.2412 207.164 34.6892C208.604 34.1132 210.32 33.8252 212.312 33.8252C213.728 33.8252 215.132 33.9692 216.524 34.2572C217.916 34.5452 219.08 34.9532 220.016 35.4812L217.964 40.1252C216.236 39.1652 214.364 38.6852 212.348 38.6852C211.268 38.6852 210.476 38.8172 209.972 39.0812C209.468 39.3212 209.216 39.6452 209.216 40.0532C209.216 40.5092 209.492 40.8332 210.044 41.0252C210.596 41.1932 211.508 41.3732 212.78 41.5652C214.388 41.8052 215.72 42.0812 216.776 42.3932C217.832 42.7052 218.744 43.2812 219.512 44.1212C220.304 44.9372 220.7 46.0892 220.7 47.5772C220.7 48.8012 220.328 49.9052 219.584 50.8892C218.84 51.8492 217.736 52.6052 216.272 53.1572C214.832 53.7092 213.092 53.9852 211.052 53.9852Z" fill="#101416"/>
<path d="M120.83 26.0146H127.67V32.3481H120.83V26.0146Z" fill="#101416"/>
</svg>
